<?xml version="1.0"?>
<svg xmlns="http://www.w3.org/2000/svg" xmlns:xlink="http://www.w3.org/1999/xlink" xmlns:svgjs="http://svgjs.com/svgjs" version="1.1" width="512" height="512" x="0" y="0" viewBox="0 0 512 512" style="enable-background:new 0 0 512 512" xml:space="preserve" class=""><g>
<g xmlns="http://www.w3.org/2000/svg">
	<g>
		<g>
			<rect x="240" width="32" height="32" fill="#231276" data-original="#000000" style="" class=""/>
			<polygon points="497.168,192.32 327.856,96.96 312.144,124.832 430.832,191.68 256,285.824 81.168,191.68 199.856,124.832      184.144,96.96 14.832,192.32 256,322.176    " fill="#231276" data-original="#000000" style="" class=""/>
			<polygon points="256,230.624 315.312,171.312 292.688,148.688 272,169.376 272,64 240,64 240,169.376 219.312,148.688      196.688,171.312    " fill="#231276" data-original="#000000" style="" class=""/>
			<rect x="240" y="480" width="32" height="32" fill="#231276" data-original="#000000" style="" class=""/>
			<polygon points="196.688,404.688 219.312,427.312 240,406.624 240,448 272,448 272,406.624 292.688,427.312 315.312,404.688      256,345.376    " fill="#231276" data-original="#000000" style="" class=""/>
		</g>
	</g>
</g>
<g xmlns="http://www.w3.org/2000/svg">
</g>
<g xmlns="http://www.w3.org/2000/svg">
</g>
<g xmlns="http://www.w3.org/2000/svg">
</g>
<g xmlns="http://www.w3.org/2000/svg">
</g>
<g xmlns="http://www.w3.org/2000/svg">
</g>
<g xmlns="http://www.w3.org/2000/svg">
</g>
<g xmlns="http://www.w3.org/2000/svg">
</g>
<g xmlns="http://www.w3.org/2000/svg">
</g>
<g xmlns="http://www.w3.org/2000/svg">
</g>
<g xmlns="http://www.w3.org/2000/svg">
</g>
<g xmlns="http://www.w3.org/2000/svg">
</g>
<g xmlns="http://www.w3.org/2000/svg">
</g>
<g xmlns="http://www.w3.org/2000/svg">
</g>
<g xmlns="http://www.w3.org/2000/svg">
</g>
<g xmlns="http://www.w3.org/2000/svg">
</g>
</g></svg>
